<svg width="53" height="53" viewBox="0 0 53 53" fill="none" xmlns="http://www.w3.org/2000/svg">
<rect y="0.646912" width="52.1955" height="52.1955" rx="11" fill="#384EE0"/>
<g clip-path="url(#clip0)">
<path d="M37.9512 12.087H14.9593C13.0188 12.087 11.4401 13.6657 11.4401 15.6062V38.5981C11.4401 40.5386 13.0188 42.1173 14.9593 42.1173H37.9512C39.8917 42.1173 41.4704 40.5386 41.4704 38.5981V15.6062C41.4704 13.6657 39.8917 12.087 37.9512 12.087ZM39.1243 38.5981C39.1243 39.2449 38.598 39.7712 37.9512 39.7712H31.2648V30.2107H34.8889L35.4878 26.5743H31.2648V24.0522C31.2648 23.0566 32.0287 22.2926 33.0244 22.2926H35.4291V18.6561H33.0244C30.0376 18.6561 27.6296 21.0756 27.6296 24.0624V26.5743H24.1091V30.2107H27.6296V39.7712H14.9593C14.3124 39.7712 13.7862 39.2449 13.7862 38.5981V15.6062C13.7862 14.9594 14.3124 14.4331 14.9593 14.4331H37.9512C38.598 14.4331 39.1243 14.9594 39.1243 15.6062V38.5981Z" fill="white"/>
</g>
<defs>
<clipPath id="clip0">
<rect width="30.0303" height="30.0303" fill="white" transform="translate(11.4401 12.087)"/>
</clipPath>
</defs>
</svg>
