<svg width="53" height="53" viewBox="0 0 53 53" fill="none" xmlns="http://www.w3.org/2000/svg">
<rect y="0.215637" width="52.1955" height="52.1955" rx="11" fill="#384EE0"/>
<g clip-path="url(#clip0)">
<path d="M26.4602 18.9606C22.2022 18.9606 18.755 22.4116 18.755 26.6659C18.755 30.9239 22.206 34.3712 26.4602 34.3712C30.7183 34.3712 34.1655 30.9202 34.1655 26.6659C34.1655 22.4078 30.7145 18.9606 26.4602 18.9606ZM26.4602 31.6672C23.6962 31.6672 21.4589 29.4287 21.4589 26.6659C21.4589 23.9031 23.6975 21.6646 26.4602 21.6646C29.223 21.6646 31.4615 23.9031 31.4615 26.6659C31.4628 29.4287 29.2243 31.6672 26.4602 31.6672Z" fill="white"/>
<path d="M32.6464 11.751C29.8836 11.6221 23.0404 11.6284 20.2752 11.751C17.8452 11.8649 15.7018 12.4517 13.9738 14.1797C11.0859 17.0676 11.455 20.959 11.455 26.666C11.455 32.5069 11.1297 36.3082 13.9738 39.1524C16.873 42.0503 20.8207 41.6711 26.4601 41.6711C32.246 41.6711 34.243 41.6749 36.2888 40.8829C39.0703 39.803 41.17 37.3168 41.3752 32.851C41.5053 30.087 41.4978 23.2451 41.3752 20.4798C41.1274 15.2082 38.2983 12.0113 32.6464 11.751ZM37.0195 37.2417C35.1264 39.1348 32.5 38.9659 26.4239 38.9659C20.1675 38.9659 17.6588 39.0585 15.8282 37.2229C13.7198 35.1245 14.1014 31.7549 14.1014 26.646C14.1014 19.7328 13.392 14.754 20.3302 14.3987C21.9243 14.3424 22.3935 14.3236 26.4063 14.3236L26.4626 14.3611C33.1306 14.3611 38.3621 13.6629 38.6762 20.5999C38.7475 22.1828 38.7638 22.6582 38.7638 26.6648C38.7625 32.8485 38.8802 35.3723 37.0195 37.2417Z" fill="white"/>
<path d="M34.4708 20.457C35.4652 20.457 36.2714 19.6509 36.2714 18.6565C36.2714 17.662 35.4652 16.8559 34.4708 16.8559C33.4764 16.8559 32.6702 17.662 32.6702 18.6565C32.6702 19.6509 33.4764 20.457 34.4708 20.457Z" fill="white"/>
</g>
<defs>
<clipPath id="clip0">
<rect width="30.0303" height="30.0303" fill="white" transform="translate(11.4401 11.6557)"/>
</clipPath>
</defs>
</svg>
