<svg width="53" height="53" viewBox="0 0 53 53" fill="none" xmlns="http://www.w3.org/2000/svg">
<rect y="0.431274" width="52.1955" height="52.1955" rx="11" fill="#384EE0"/>
<g clip-path="url(#clip0)">
<path d="M41.4704 17.5752C40.3536 18.0651 39.1637 18.3898 37.923 18.5475C39.1993 17.7855 40.1734 16.588 40.6314 15.1447C39.4414 15.8541 38.1276 16.3553 36.7275 16.6349C35.5976 15.4318 33.9872 14.6867 32.2304 14.6867C28.822 14.6867 26.078 17.4532 26.078 20.8448C26.078 21.3328 26.1193 21.802 26.2206 22.2487C21.1023 21.9991 16.5734 19.546 13.531 15.8091C12.9998 16.7306 12.6882 17.7855 12.6882 18.921C12.6882 21.0531 13.7862 22.9432 15.4229 24.0374C14.4337 24.0186 13.4634 23.7314 12.6413 23.2791C12.6413 23.2979 12.6413 23.3223 12.6413 23.3467C12.6413 26.3384 14.7753 28.8235 17.5738 29.3959C17.0727 29.5329 16.5265 29.5986 15.9597 29.5986C15.5655 29.5986 15.1676 29.5761 14.7941 29.4935C15.5918 31.9316 17.8553 33.724 20.5468 33.7822C18.4522 35.4207 15.7926 36.408 12.9135 36.408C12.4086 36.408 11.9243 36.3854 11.4401 36.3235C14.1672 38.0822 17.3992 39.0863 20.8846 39.0863C32.2135 39.0863 38.4073 29.7018 38.4073 21.5674C38.4073 21.2952 38.3979 21.0325 38.3848 20.7716C39.6066 19.9045 40.6333 18.8215 41.4704 17.5752Z" fill="white"/>
</g>
<defs>
<clipPath id="clip0">
<rect width="30.0303" height="30.0303" fill="white" transform="translate(11.4401 11.8714)"/>
</clipPath>
</defs>
</svg>
